# xmcd
#
# Track frame offsets:
#	150
#	14991
#	25515
#	45517
#	59210
#	72796
#	86492
#	102414
#	115364
#	129018
#	142277
#	154716
#	166599
#	182563
#	198470
#	212741
#	225129
#	238405
#	257031
#	268596
#	279510
#	289948
#	302836
#	319962
#	330642
#	339805
#
# Disc length: 4747 seconds
#
# Revision: 1
# Processed by: cddbd v1.5.2PL0 Copyright (c) Steve Scherf et al.
# Submitted via: EZCDAudioConverter 7.0.6.1
#
DISCID=7d12891a
DTITLE=Various Artist - Looking At The Pictures In The Sky 2/3
DYEAR=2017
DGENRE=
TTITLE0=Mike Stuart Span - Children Of Tomorrow
TTITLE1=The Barrier - Dawn Breaks Through
TTITLE2=The Attack - Mr. Pinnodmy's Dilemma
TTITLE3=The Freedom - Trying To Get A Glimpse Of You
TTITLE4=Rupert's People - I Can Show You
TTITLE5=The Poets - Locked In A Room
TTITLE6=Wimple Winch - Bluebell Wood
TTITLE7=Status Quo - Technicolor Dreams
TTITLE8=The Spectrum - Music Soothes The Savage Breast
TTITLE9=The Movement - Head For The Sun
TTITLE10=The Klubs - Midnight Love Cycle
TTITLE11=Contact - Lovers From The Sky
TTITLE12=The Deviants - Jamie's Song
TTITLE13=The Smoke - Sydney Gill
TTITLE14=Peter and The Wolves - Birthday
TTITLE15=Jon Ledingham - Love Is A Toy
TTITLE16=Sadie's Expression  - Yesterday Was Such A Lovely Day (Elsie)
TTITLE17=The Move - Omnibus [Extended Stereo Version]
TTITLE18=Real McCoy - I Get So Excited
TTITLE19=Junior's Eyes - Mr. Golden Trumpet Player
TTITLE20=Picadilly Line - Yellow Rainbow
TTITLE21=Spencer Davis Group - Time Seller [LP Version]
TTITLE22=Tony Rivers and The Castaways - Pantomime
TTITLE23=Katch 22 - Go And Say Goodbye
TTITLE24=Andy Ellison - Cornflake Zoo
TTITLE25=Alan Bown! - Penny For Your Thoughts
EXTD=
EXTT0=
EXTT1=
EXTT2=
EXTT3=
EXTT4=
EXTT5=
EXTT6=
EXTT7=
EXTT8=
EXTT9=
EXTT10=
EXTT11=
EXTT12=
EXTT13=
EXTT14=
EXTT15=
EXTT16=
EXTT17=
EXTT18=
EXTT19=
EXTT20=
EXTT21=
EXTT22=
EXTT23=
EXTT24=
EXTT25=
PLAYORDER=
